<?xml version="1.0" standalone="no"?>
<!DOCTYPE svg PUBLIC "-//W3C//DTD SVG 20010904//EN"
 "http://www.w3.org/TR/2001/REC-SVG-20010904/DTD/svg10.dtd">
<svg version="1.0" xmlns="http://www.w3.org/2000/svg"
 width="414.000000pt" height="118.000000pt" viewBox="0 0 414.000000 118.000000"
 preserveAspectRatio="xMidYMid meet">
<style type="text/css">
	.st0{fill:#fffff;}
	.st1{fill:#415D43;}
</style>
<g transform="translate(0.000000,118.000000) scale(0.100000,-0.100000)">
<path d="M93 1173 c-31 -6 -81 -66 -89 -108 -3 -20 -4 -91 -2 -158 5 -155 21
-193 123 -298 94 -96 123 -157 141 -290 15 -117 38 -174 93 -227 62 -60 122
-85 206 -86 86 -1 131 14 194 64 65 51 107 136 117 231 6 63 9 71 34 84 39 20
77 69 92 116 22 76 -19 166 -96 206 -41 22 -133 14 -173 -15 -48 -34 -77 -103
-70 -164 8 -64 36 -108 87 -137 39 -22 40 -24 40 -75 0 -154 -155 -265 -294
-212 -55 21 -121 91 -135 142 -34 122 15 253 139 374 95 93 110 137 110 323 0
125 -3 146 -20 175 -23 38 -72 62 -128 62 -43 0 -62 -14 -62 -45 0 -32 20 -45
67 -45 60 0 66 -15 61 -169 -3 -117 -5 -129 -31 -174 -33 -55 -98 -102 -157
-112 -90 -15 -197 47 -235 137 -19 47 -22 287 -3 306 7 7 29 12 49 12 59 0 87
40 53 74 -15 15 -60 19 -111 9z m805 -569 c34 -39 30 -95 -9 -128 -40 -34 -71
-33 -111 3 -45 40 -44 93 2 134 39 35 82 32 118 -9z"/>
<path d="M1394 805 c-15 -23 -15 -27 0 -50 11 -17 26 -25 44 -25 35 0 52 17
52 52 0 49 -68 66 -96 23z"/>
<path d="M3590 720 l0 -81 -46 27 c-74 43 -153 25 -208 -49 -31 -42 -34 -143
-6 -201 40 -83 137 -113 216 -67 43 26 44 26 44 1 0 -17 7 -20 40 -20 l40 0 0
235 0 235 -40 0 -40 0 0 -80z m-43 -125 c13 -9 27 -34 33 -56 9 -33 8 -46 -7
-77 -33 -68 -96 -79 -149 -27 -34 34 -34 102 2 144 20 24 34 31 63 31 20 0 46
-7 58 -15z"/>
<path d="M1017 774 c-4 -4 -7 -22 -7 -40 l0 -33 100 -3 100 -3 -100 -150 c-75
-113 -100 -158 -100 -182 l0 -33 155 0 155 0 0 35 0 35 -100 0 c-55 0 -100 3
-100 7 0 4 45 76 101 159 79 119 100 158 97 180 l-3 29 -146 3 c-80 1 -148 -1
-152 -4z"/>
<path d="M1720 679 c-13 -6 -33 -17 -42 -26 -17 -15 -18 -15 -18 5 0 19 -6 22
-45 22 l-45 0 0 -175 0 -175 45 0 45 0 0 108 c0 127 10 149 71 158 39 6 39 7
39 50 0 47 -6 50 -50 33z"/>
<path d="M1904 676 c-84 -38 -120 -165 -74 -260 42 -88 144 -115 224 -61 l36
24 0 -24 c0 -23 4 -25 45 -25 l45 0 0 175 0 175 -44 0 c-38 0 -45 -3 -48 -21
l-3 -21 -29 23 c-35 27 -109 35 -152 15z m143 -81 c27 -19 46 -77 38 -115 -7
-34 -57 -80 -86 -80 -29 0 -77 27 -89 49 -19 37 -12 97 16 130 20 24 34 31 63
31 20 0 46 -7 58 -15z"/>
<path d="M2392 670 c-39 -24 -42 -24 -42 -5 0 11 -12 15 -45 15 l-45 0 0 -175
0 -175 44 0 44 0 4 121 c3 113 5 122 27 140 31 25 85 25 111 -1 18 -18 20 -33
20 -140 l0 -120 45 0 45 0 0 114 c0 99 3 117 21 140 29 37 89 37 118 0 18 -23
21 -41 21 -140 l0 -114 45 0 45 0 0 120 c0 80 -5 132 -14 154 -36 87 -151 112
-227 49 l-30 -26 -22 21 c-48 45 -113 54 -165 22z"/>
<path d="M3024 680 c-49 -15 -100 -78 -108 -134 -22 -144 80 -244 219 -214 32
7 54 20 79 49 20 21 36 44 36 49 0 19 -81 11 -107 -10 -26 -20 -67 -26 -98
-14 -14 6 -45 53 -45 69 0 3 59 5 130 5 l130 0 0 40 c0 93 -60 158 -152 165
-29 3 -67 0 -84 -5z m105 -75 c26 -13 41 -33 41 -56 0 -5 -38 -9 -85 -9 -54 0
-85 4 -85 11 0 19 58 69 80 69 11 0 34 -7 49 -15z"/>
<path d="M1390 505 l0 -175 45 0 45 0 0 175 0 175 -45 0 -45 0 0 -175z"/>
</g>
</svg>
