<?xml version="1.0" standalone="no"?>
<!DOCTYPE svg PUBLIC "-//W3C//DTD SVG 20010904//EN"
 "http://www.w3.org/TR/2001/REC-SVG-20010904/DTD/svg10.dtd">
<svg version="1.0" xmlns="http://www.w3.org/2000/svg"
 width="105.000000pt" height="119.000000pt" viewBox="0 0 105.000000 119.000000"
 preserveAspectRatio="xMidYMid meet">

<g transform="translate(0.000000,119.000000) scale(0.100000,-0.100000)"
fill="#415D43" stroke="none">
<path d="M20 1170 c-19 -19 -20 -33 -20 -212 0 -214 13 -303 55 -373 34 -60
109 -123 164 -139 l46 -13 7 -82 c12 -145 88 -265 203 -321 73 -36 180 -34
252 3 118 61 203 202 203 339 0 32 7 45 49 85 62 60 79 112 63 192 -27 132
-150 195 -250 128 -109 -72 -109 -262 -1 -334 45 -30 49 -55 24 -141 -43 -144
-180 -218 -300 -163 -87 39 -150 152 -143 252 3 41 5 42 49 55 100 29 187 144
208 275 15 89 14 404 0 432 -18 33 -28 37 -94 37 -73 0 -105 -18 -105 -60 0
-38 24 -60 66 -60 l34 0 0 -177 c0 -199 -8 -230 -70 -290 -43 -42 -88 -56
-161 -51 -77 6 -133 43 -168 113 -24 48 -25 58 -26 225 l0 175 35 3 c65 6 92
60 50 102 -16 16 -33 20 -85 20 -52 0 -69 -4 -85 -20z m889 -490 c10 -5 24
-23 31 -40 21 -50 -14 -110 -65 -110 -27 0 -65 46 -65 80 0 19 9 40 25 55 26
27 46 31 74 15z"/>
</g>
</svg>
